# xmcd
#
# Track frame offsets: 
#        150
#        2435
#        21232
#        38062
#        61735
#        84232
#        106902
#        112445
#        133842
#        156645
#        177965
#        200955
#
# Disc length: 3031 seconds
#
# Revision: 0
# Processed by: cddbd v1.4PL0 Copyright (c) Steve Scherf et al.
# Submitted via: ExactAudioCopy v0.90b4
#
DISCID=a30bd50c
DTITLE=Tatyana Ali - Kiss The Sky
DYEAR=1998
DGENRE=R&B
TTITLE0=Intro
TTITLE1=Boy You Knock Me Ou
TTITLE2=If You Only Knew
TTITLE3=Everytime
TTITLE4=Daydreamin'
TTITLE5=Love The Way
TTITLE6=Interlude
TTITLE7=He Loves Me
TTITLE8=Kiss The Sky
TTITLE9=If I Ever
TTITLE10=Yesterday (with Chico Debarge)
TTITLE11=Through Life Alone
EXTD=
EXTT0=
EXTT1=
EXTT2=
EXTT3=
EXTT4=
EXTT5=
EXTT6=
EXTT7=
EXTT8=
EXTT9=
EXTT10=
EXTT11=
PLAYORDER=
